<svg width="900" height="720" viewBox="0 0 900 720" fill="none" xmlns="http://www.w3.org/2000/svg">
  <defs>
    <linearGradient id="leafGradient" x1="240" y1="90" x2="690" y2="560" gradientUnits="userSpaceOnUse">
      <stop offset="0" stop-color="#39D98A"/>
      <stop offset="0.48" stop-color="#16A34A"/>
      <stop offset="1" stop-color="#047857"/>
    </linearGradient>
    <linearGradient id="leafHighlight" x1="214" y1="76" x2="704" y2="580" gradientUnits="userSpaceOnUse">
      <stop offset="0" stop-color="#FFFFFF" stop-opacity="0.18"/>
      <stop offset="0.45" stop-color="#FFFFFF" stop-opacity="0.06"/>
      <stop offset="1" stop-color="#FFFFFF" stop-opacity="0"/>
    </linearGradient>
    <filter id="softShadow" x="-20%" y="-20%" width="140%" height="140%">
      <feDropShadow dx="0" dy="9" stdDeviation="15" flood-color="#020617" flood-opacity="0.12"/>
    </filter>
  </defs>

  <g filter="url(#softShadow)">
    <path d="
M451 64
C306 64 196 174 196 319
V568
H445
C590 568 704 454 704 309
V110
C704 84.6 683.4 64 658 64
H451Z
" fill="url(#leafGradient)"/>
    <path d="
M451 64
C306 64 196 174 196 319
V568
H445
C590 568 704 454 704 309
V110
C704 84.6 683.4 64 658 64
H451Z
" fill="url(#leafHighlight)"/>
    <path d="M312 330L402 419L588 233" stroke="white" stroke-width="56" stroke-linecap="round" stroke-linejoin="round"/>
  </g>

  <text x="450" y="690" text-anchor="middle"
        font-family="Inter, Avenir Next, Helvetica Neue, Arial, sans-serif"
        font-size="118" font-weight="700" letter-spacing="-3"
        fill="#0F1F1A">Fiable</text>
</svg>
